0
SECTION
2
HEADER
9
$INSUNITS
70
4
9
$ACADVER
1
AC1014
9
$HANDSEED
5
FFFF
0
ENDSEC
0
SECTION
2
TABLES
0
TABLE
2
VPORT
5
8
100
AcDbSymbolTable
0
ENDTAB
0
TABLE
2
LTYPE
5
5
100
AcDbSymbolTable
0
LTYPE
5
14
100
AcDbSymbolTableRecord
100
AcDbLinetypeTableRecord
2
BYBLOCK
70
0
0
LTYPE
5
15
100
AcDbSymbolTableRecord
100
AcDbLinetypeTableRecord
2
BYLAYER
70
0
0
LTYPE
5
16
100
AcDbSymbolTableRecord
100
AcDbLinetypeTableRecord
2
DASHED
70
0
3
Dashed __ __ __ __ __ __ __ __ __ __ __ __ __ _
72
65
73
2
40
0.75
49
0.5
74
0
49
-0.25
74
0
0
ENDTAB
0
TABLE
2
LAYER
5
2
100
AcDbSymbolTable
70
2
0
LAYER
5
50
100
AcDbSymbolTableRecord
100
AcDbLayerTableRecord
2
0
70
0
62
7
6
CONTINUOUS
0
ENDTAB
0
TABLE
2
STYLE
5
3
100
AcDbSymbolTable
70
1
0
STYLE
5
11
100
AcDbSymbolTableRecord
100
AcDbTextStyleTableRecord
2
STANDARD
70
0
0
ENDTAB
0
TABLE
2
VIEW
5
6
100
AcDbSymbolTable
70
0
0
ENDTAB
0
TABLE
2
UCS
5
7
100
AcDbSymbolTable
70
0
0
ENDTAB
0
TABLE
2
APPID
5
9
100
AcDbSymbolTable
70
2
0
APPID
5
12
100
AcDbSymbolTableRecord
100
AcDbRegAppTableRecord
2
ACAD
70
0
0
ENDTAB
0
TABLE
2
DIMSTYLE
5
A
100
AcDbSymbolTable
70
1
0
ENDTAB
0
TABLE
2
BLOCK_RECORD
5
1
100
AcDbSymbolTable
70
1
0
BLOCK_RECORD
5
1F
100
AcDbSymbolTableRecord
100
AcDbBlockTableRecord
2
*MODEL_SPACE
0
BLOCK_RECORD
5
1B
100
AcDbSymbolTableRecord
100
AcDbBlockTableRecord
2
*PAPER_SPACE
0
ENDTAB
0
ENDSEC
0
SECTION
2
BLOCKS
0
BLOCK
5
20
100
AcDbEntity
100
AcDbBlockBegin
2
*MODEL_SPACE
0
ENDBLK
5
21
100
AcDbEntity
100
AcDbBlockEnd
0
BLOCK
5
1C
100
AcDbEntity
100
AcDbBlockBegin
2
*PAPER_SPACE
0
ENDBLK
5
1D
100
AcDbEntity
100
AcDbBlockEnd
0
ENDSEC
0
SECTION
2
ENTITIES
0
POINT
5
100
100
AcDbEntity
8
0
100
AcDbPoint
10
-93.397502066940064
20
52.137500867247581
30
0
0
POINT
5
101
100
AcDbEntity
8
0
100
AcDbPoint
10
-54.147502066940064
20
52.137500867247581
30
0
0
POINT
5
102
100
AcDbEntity
8
0
100
AcDbPoint
10
-14.897502066940067
20
52.137500867247581
30
0
0
POINT
5
103
100
AcDbEntity
8
0
100
AcDbPoint
10
24.35249793305994
20
52.137500867247581
30
0
0
POINT
5
104
100
AcDbEntity
8
0
100
AcDbPoint
10
63.602497933059929
20
52.137500867247581
30
0
0
POINT
5
105
100
AcDbEntity
8
0
100
AcDbPoint
10
102.85249793305994
20
52.137500867247581
30
0
0
POINT
5
106
100
AcDbEntity
8
0
100
AcDbPoint
10
-135.64750206694009
20
26.47083420058091
30
0
0
POINT
5
107
100
AcDbEntity
8
0
100
AcDbPoint
10
-96.397502066940064
20
26.47083420058091
30
0
0
POINT
5
108
100
AcDbEntity
8
0
100
AcDbPoint
10
-57.147502066940071
20
26.47083420058091
30
0
0
POINT
5
109
100
AcDbEntity
8
0
100
AcDbPoint
10
-17.897502066940074
20
26.47083420058091
30
0
0
POINT
5
110
100
AcDbEntity
8
0
100
AcDbPoint
10
21.352497933059933
20
26.47083420058091
30
0
0
POINT
5
111
100
AcDbEntity
8
0
100
AcDbPoint
10
60.602497933059922
20
26.47083420058091
30
0
0
POINT
5
112
100
AcDbEntity
8
0
100
AcDbPoint
10
99.852497933059936
20
26.47083420058091
30
0
0
POINT
5
113
100
AcDbEntity
8
0
100
AcDbPoint
10
-135.64750206694009
20
-23.862499132752433
30
0
0
POINT
5
114
100
AcDbEntity
8
0
100
AcDbPoint
10
-96.397502066940064
20
-23.862499132752433
30
0
0
POINT
5
115
100
AcDbEntity
8
0
100
AcDbPoint
10
-17.897502066940074
20
-23.862499132752433
30
0
0
POINT
5
116
100
AcDbEntity
8
0
100
AcDbPoint
10
21.352497933059933
20
-23.862499132752433
30
0
0
POINT
5
117
100
AcDbEntity
8
0
100
AcDbPoint
10
60.602497933059922
20
-23.862499132752433
30
0
0
POINT
5
118
100
AcDbEntity
8
0
100
AcDbPoint
10
99.852497933059936
20
-23.862499132752433
30
0
0
POINT
5
119
100
AcDbEntity
8
0
100
AcDbPoint
10
-96.397502066940064
20
46.620834200580902
30
0
0
POINT
5
120
100
AcDbEntity
8
0
100
AcDbPoint
10
-57.147502066940071
20
46.620834200580902
30
0
0
POINT
5
121
100
AcDbEntity
8
0
100
AcDbPoint
10
60.602497933059922
20
46.620834200580902
30
0
0
POINT
5
122
100
AcDbEntity
8
0
100
AcDbPoint
10
-17.897502066940074
20
46.620834200580902
30
0
0
POINT
5
123
100
AcDbEntity
8
0
100
AcDbPoint
10
21.352497933059933
20
46.620834200580902
30
0
0
LWPOLYLINE
5
124
100
AcDbEntity
8
0
100
AcDbPolyline
90
8
70
1
43
0.0
10
-132.64750206694006
20
58.200000867247581
10
131.87149691693486
20
58.200000867247581
42
-0.41421356237309503
10
137.93399691693483
20
52.137500867247581
10
137.93399691693483
20
-52.622498688288033
42
-0.41421356237309503
10
131.87149691693486
20
-58.684998688288033
10
-132.64750206694006
20
-58.684998688288033
42
-0.41421356237309503
10
-138.71000206694006
20
-52.622498688288033
10
-138.71000206694006
20
52.137500867247596
42
-0.4142135623730942
0
LWPOLYLINE
5
125
100
AcDbEntity
8
0
100
AcDbPolyline
90
8
70
1
43
0.0
10
-106.3944771064233
20
17.171080061950278
10
-128.87625846192628
20
17.171080061950327
42
-0.41421356237309176
10
-132.06998331126459
20
20.364804911288623
10
-132.06998331126462
20
24.107416143670992
42
-0.41421356237309664
10
-128.87625846192623
20
27.301140993009355
10
-106.39447710642332
20
27.301140993009348
42
-0.41421356237309265
10
-103.20075225708499
20
24.107416143670992
10
-103.20075225708499
20
20.364804911288598
42
-0.41421356237309304
0
LWPOLYLINE
5
126
100
AcDbEntity
8
0
100
AcDbPolyline
90
8
70
1
43
0.0
10
-67.144477106423295
20
17.171080061950278
10
-89.626258461926255
20
17.171080061950327
42
-0.41421356237309342
10
-92.819983311264579
20
20.364804911288623
10
-92.819983311264608
20
24.107416143670992
42
-0.41421356237309664
10
-89.626258461926227
20
27.301140993009355
10
-67.144477106423338
20
27.301140993009341
42
-0.41421356237309265
10
-63.950752257084993
20
24.107416143670992
10
-63.950752257084972
20
20.364804911288598
42
-0.41421356237309381
0
LWPOLYLINE
5
127
100
AcDbEntity
8
0
100
AcDbPolyline
90
8
70
1
43
0.0
10
-27.894477106423302
20
17.171080061950281
10
-50.376258461926263
20
17.171080061950317
42
-0.41421356237309342
10
-53.569983311264586
20
20.364804911288623
10
-53.569983311264608
20
24.107416143670992
42
-0.41421356237309664
10
-50.376258461926227
20
27.301140993009355
10
-27.894477106423338
20
27.301140993009344
42
-0.41421356237309304
10
-24.700752257084989
20
24.107416143670992
10
-24.700752257084986
20
20.364804911288598
42
-0.41421356237309426
0
LWPOLYLINE
5
128
100
AcDbEntity
8
0
100
AcDbPolyline
90
8
70
1
43
0.0
10
11.355522893576687
20
17.171080061950271
10
-11.126258461926257
20
17.171080061950303
42
-0.41421356237309465
10
-14.319983311264593
20
20.364804911288626
10
-14.319983311264606
20
24.107416143670992
42
-0.41421356237309609
10
-11.126258461926232
20
27.301140993009355
10
11.355522893576653
20
27.301140993009344
42
-0.41421356237309359
10
14.549247742915007
20
24.107416143670992
10
14.549247742915021
20
20.364804911288601
42
-0.41421356237309548
0
LWPOLYLINE
5
129
100
AcDbEntity
8
0
100
AcDbPolyline
90
8
70
1
43
0.0
10
50.605522893576691
20
17.171080061950267
10
28.123741538073755
20
17.171080061950306
42
-0.41421356237309426
10
24.930016688735414
20
20.364804911288623
10
24.9300166887354
20
24.107416143670992
42
-0.41421356237309587
10
28.123741538073773
20
27.301140993009355
10
50.605522893576655
20
27.301140993009348
42
-0.41421356237309426
10
53.799247742915021
20
24.107416143670992
10
53.799247742915028
20
20.364804911288598
42
-0.41421356237309548
0
LWPOLYLINE
5
130
100
AcDbEntity
8
0
100
AcDbPolyline
90
8
70
1
43
0.0
10
89.855522893576676
20
17.171080061950267
10
67.373741538073759
20
17.171080061950306
42
-0.41421356237309503
10
64.180016688735407
20
20.364804911288623
10
64.180016688735378
20
24.107416143670992
42
-0.41421356237309664
10
67.373741538073773
20
27.301140993009355
10
89.855522893576634
20
27.301140993009334
42
-0.41421356237309587
10
93.049247742915
20
24.107416143670992
10
93.049247742915014
20
20.364804911288598
42
-0.41421356237309626
0
LWPOLYLINE
5
131
100
AcDbEntity
8
0
100
AcDbPolyline
90
8
70
1
43
0.0
10
129.10552289357668
20
17.171080061950263
10
106.62374153807377
20
17.17108006195032
42
-0.41421356237309709
10
103.43001668873542
20
20.364804911288623
10
103.43001668873539
20
24.107416143670992
42
-0.41421356237309664
10
106.62374153807377
20
27.301140993009358
10
129.10552289357665
20
27.301140993009348
42
-0.41421356237309587
10
132.29924774291501
20
24.107416143670992
10
132.29924774291504
20
20.364804911288601
42
-0.41421356237309664
0
LWPOLYLINE
5
132
100
AcDbEntity
8
0
100
AcDbPolyline
90
8
70
1
43
0.0
10
-106.3944771064233
20
-3.1622532713830687
10
-128.87625846192628
20
-3.1622532713830154
42
-0.41421356237309215
10
-132.06998331126459
20
0.031471577955284324
10
-132.06998331126459
20
3.7740828103376511
42
-0.41421356237309503
10
-128.87625846192623
20
6.967807659676013
10
-106.39447710642332
20
6.9678076596759908
42
-0.41421356237309265
10
-103.200752257085
20
3.7740828103376511
10
-103.20075225708499
20
0.031471577955262349
42
-0.41421356237309342
0
LWPOLYLINE
5
133
100
AcDbEntity
8
0
100
AcDbPolyline
90
8
70
1
43
0.0
10
-27.894477106423309
20
-3.1622532713830687
10
-50.376258461926263
20
-3.1622532713830376
42
-0.41421356237309342
10
-53.569983311264586
20
0.031471577955284324
10
-53.569983311264608
20
3.7740828103376511
42
-0.41421356237309503
10
-50.376258461926241
20
6.9678076596760175
10
-27.894477106423345
20
6.9678076596759997
42
-0.41421356237309381
10
-24.700752257084989
20
3.7740828103376511
10
-24.700752257084972
20
0.031471577955262502
42
-0.41421356237309465
0
LWPOLYLINE
5
134
100
AcDbEntity
8
0
100
AcDbPolyline
90
8
70
1
43
0.0
10
11.355522893576682
20
-3.1622532713830775
10
-11.126258461926263
20
-3.1622532713830376
42
-0.41421356237309426
10
-14.319983311264593
20
0.031471577955284324
10
-14.319983311264606
20
3.7740828103376511
42
-0.41421356237309503
10
-11.126258461926239
20
6.9678076596760175
10
11.355522893576646
20
6.9678076596760086
42
-0.41421356237309426
10
14.549247742915012
20
3.7740828103376511
10
14.549247742915039
20
0.031471577955262314
42
-0.41421356237309503
0
LWPOLYLINE
5
135
100
AcDbEntity
8
0
100
AcDbPolyline
90
8
70
1
43
0.0
10
50.605522893576676
20
-3.1622532713830775
10
28.123741538073752
20
-3.162253271383042
42
-0.41421356237309426
10
24.930016688735407
20
0.031471577955284324
10
24.93001668873541
20
3.7740828103376507
42
-0.41421356237309426
10
28.123741538073766
20
6.9678076596760175
10
50.605522893576648
20
6.9678076596759997
42
-0.41421356237309587
10
53.799247742915021
20
3.7740828103376511
10
53.799247742915043
20
0.031471577955262654
42
-0.41421356237309587
0
LWPOLYLINE
5
136
100
AcDbEntity
8
0
100
AcDbPolyline
90
8
70
1
43
0.0
10
89.855522893576676
20
-3.1622532713830775
10
67.373741538073773
20
-3.1622532713830376
42
-0.41421356237309709
10
64.180016688735407
20
0.031471577955288765
10
64.180016688735392
20
3.7740828103376511
42
-0.41421356237309503
10
67.373741538073759
20
6.9678076596760175
10
89.855522893576619
20
6.9678076596760086
42
-0.41421356237309709
10
93.049247742915014
20
3.7740828103376556
10
93.049247742915043
20
0.031471577955262842
42
-0.41421356237309548
0
LWPOLYLINE
5
137
100
AcDbEntity
8
0
100
AcDbPolyline
90
8
70
1
43
0.0
10
129.10552289357668
20
-3.1622532713830775
10
106.62374153807377
20
-3.1622532713830198
42
-0.41421356237309587
10
103.43001668873542
20
0.031471577955284324
10
103.43001668873541
20
3.7740828103376511
42
-0.41421356237309503
10
106.62374153807377
20
6.967807659676013
10
129.10552289357665
20
6.9678076596760086
42
-0.41421356237309548
10
132.29924774291501
20
3.7740828103376556
10
132.29924774291507
20
0.03147157795526262
42
-0.41421356237309748
0
CIRCLE
5
138
100
AcDbEntity
8
0
100
AcDbCircle
10
-125.1300018645823
20
-45.500000722706318
30
0
40
4.8499999999999934
210
0
220
0
230
1
0
CIRCLE
5
139
100
AcDbEntity
8
0
100
AcDbCircle
10
126.09999813541771
20
-45.500000722706318
30
0
40
4.8499999999999934
210
0
220
0
230
1
0
CIRCLE
5
140
100
AcDbEntity
8
0
100
AcDbCircle
10
-120.37989952708152
20
39.560631036468372
30
0
40
3.3949999999999978
210
0
220
0
230
1
0
CIRCLE
5
141
100
AcDbEntity
8
0
100
AcDbCircle
10
119.41963544196088
20
39.451613482959715
30
0
40
3.3949999999999978
210
0
220
0
230
1
0
CIRCLE
5
142
100
AcDbEntity
8
0
100
AcDbCircle
10
-0.26335893034672769
20
39.521630821469046
30
0
40
3.3949999999999978
210
0
220
0
230
1
0
LWPOLYLINE
5
143
100
AcDbEntity
8
0
100
AcDbPolyline
90
8
70
1
43
0.0
10
24.930016688735407
20
-20.268528422044717
42
0.41421356237309426
10
28.123741538073752
20
-23.462253271383034
10
50.605522893576676
20
-23.46225327138308
42
0.41421356237309587
10
53.799247742915036
20
-20.268528422044739
10
53.799247742915021
20
-16.525917189662351
42
0.41421356237309587
10
50.605522893576648
20
-13.332192340323989
10
28.123741538073766
20
-13.332192340323985
42
0.41421356237309426
10
24.930016688735428
20
-16.525917189662351
0
LWPOLYLINE
5
144
100
AcDbEntity
8
0
100
AcDbPolyline
90
8
70
1
43
0.0
10
129.10552289357668
20
-23.46225327138308
10
106.62374153807377
20
-23.462253271383023
42
-0.41421356237309587
10
103.43001668873542
20
-20.268528422044717
10
103.43001668873541
20
-16.525917189662351
42
-0.41421356237309503
10
106.62374153807377
20
-13.332192340323989
10
129.10552289357665
20
-13.332192340323994
42
-0.41421356237309548
10
132.29924774291501
20
-16.525917189662348
10
132.29924774291507
20
-20.268528422044739
42
-0.41421356237309748
0
LWPOLYLINE
5
145
100
AcDbEntity
8
0
100
AcDbPolyline
90
8
70
1
43
0.0
10
14.549247742915012
20
-16.525917189662351
42
0.41421356237309426
10
11.355522893576646
20
-13.332192340323994
10
-11.126258461926239
20
-13.332192340323985
42
0.41421356237309503
10
-14.319983311264583
20
-16.525917189662351
10
-14.319983311264593
20
-20.268528422044717
42
0.41421356237309426
10
-11.126258461926263
20
-23.462253271383041
10
11.355522893576682
20
-23.46225327138308
42
0.41421356237309503
10
14.549247742915032
20
-20.268528422044739
0
LWPOLYLINE
5
146
100
AcDbEntity
8
0
100
AcDbPolyline
90
8
70
1
43
0.0
10
-128.87625846192623
20
-13.332192340323989
42
0.41421356237309503
10
-132.06998331126459
20
-16.525917189662351
10
-132.06998331126459
20
-20.268528422044717
42
0.41421356237309215
10
-128.87625846192628
20
-23.462253271383034
10
-106.3944771064233
20
-23.462253271383069
42
0.41421356237309342
10
-103.20075225708496
20
-20.268528422044739
10
-103.200752257085
20
-16.525917189662351
42
0.41421356237309265
10
-106.39447710642332
20
-13.332192340323999
0
LWPOLYLINE
5
147
100
AcDbEntity
8
0
100
AcDbPolyline
90
8
70
1
43
0.0
10
67.373741538073759
20
-13.332192340323985
42
0.41421356237309503
10
64.180016688735421
20
-16.525917189662351
10
64.180016688735407
20
-20.268528422044714
42
0.41421356237309709
10
67.373741538073759
20
-23.462253271383034
10
89.855522893576676
20
-23.46225327138308
42
0.41421356237309548
10
93.049247742915043
20
-20.268528422044739
10
93.049247742915014
20
-16.525917189662348
42
0.41421356237309709
10
89.855522893576619
20
-13.332192340323989
0
LWPOLYLINE
5
148
100
AcDbEntity
8
0
100
AcDbPolyline
90
8
70
1
43
0.0
10
-50.376258461926241
20
-13.332192340323985
42
0.41421356237309503
10
-53.569983311264586
20
-16.525917189662351
10
-53.569983311264586
20
-20.268528422044717
42
0.41421356237309342
10
-50.376258461926263
20
-23.462253271383041
10
-27.894477106423309
20
-23.462253271383069
42
0.41421356237309465
10
-24.700752257084968
20
-20.268528422044739
10
-24.700752257084989
20
-16.525917189662351
42
0.41421356237309381
10
-27.894477106423345
20
-13.332192340323994
0
LWPOLYLINE
5
149
100
AcDbEntity
8
0
100
AcDbPolyline
90
8
70
1
43
0.0
10
-89.626258461926227
20
47.451140993009354
10
-67.144477106423338
20
47.451140993009339
42
-0.41421356237309176
10
-63.950752257084993
20
44.257416143670994
10
-63.950752257084986
20
40.5148049112886
42
-0.41421356237309426
10
-67.144477106423295
20
37.321080061950276
10
-89.626258461926255
20
37.321080061950326
42
-0.41421356237309342
10
-92.819983311264579
20
40.514804911288621
10
-92.819983311264593
20
44.257416143670994
42
-0.41421356237309664
0
LWPOLYLINE
5
150
100
AcDbEntity
8
0
100
AcDbPolyline
90
8
70
1
43
0.0
10
53.799247742915021
20
44.257416143670994
42
0.41421356237309342
10
50.605522893576655
20
47.451140993009346
10
28.123741538073773
20
47.451140993009354
42
0.41421356237309587
10
24.93001668873541
20
44.257416143670994
10
24.930016688735414
20
40.514804911288621
42
0.41421356237309426
10
28.123741538073755
20
37.321080061950312
10
50.605522893576691
20
37.321080061950269
42
0.41421356237309587
10
53.799247742915036
20
40.5148049112886
0
LWPOLYLINE
5
151
100
AcDbEntity
8
0
100
AcDbPolyline
90
8
70
1
43
0.0
10
64.180016688735407
20
40.514804911288621
42
0.41421356237309503
10
67.373741538073759
20
37.321080061950312
10
89.855522893576676
20
37.321080061950269
42
0.41421356237309664
10
93.049247742915043
20
40.5148049112886
10
93.049247742915
20
44.257416143670994
42
0.41421356237309503
10
89.855522893576634
20
47.451140993009346
10
67.373741538073773
20
47.451140993009354
42
0.41421356237309664
10
64.180016688735407
20
44.257416143670994
0
LWPOLYLINE
5
152
100
AcDbEntity
8
0
100
AcDbPolyline
90
8
70
1
43
0.0
10
-53.569983311264586
20
40.514804911288621
10
-53.569983311264608
20
44.257416143670994
42
-0.41421356237309664
10
-50.376258461926227
20
47.451140993009354
10
-27.894477106423338
20
47.451140993009346
42
-0.41421356237309215
10
-24.700752257084989
20
44.257416143670994
10
-24.700752257084989
20
40.514804911288607
42
-0.41421356237309465
10
-27.894477106423302
20
37.321080061950283
10
-50.376258461926263
20
37.321080061950312
42
-0.41421356237309342
0
LWPOLYLINE
5
153
100
AcDbEntity
8
0
100
AcDbPolyline
90
8
70
1
43
0.0
10
11.355522893576682
20
-43.762253271383081
42
0.41421356237309503
10
14.549247742915032
20
-40.568528422044743
10
14.549247742915012
20
-36.825917189662356
42
0.41421356237309426
10
11.355522893576646
20
-33.632192340323996
10
-11.126258461926239
20
-33.632192340323989
42
0.41421356237309503
10
-14.319983311264583
20
-36.825917189662356
10
-14.319983311264593
20
-40.568528422044722
42
0.41421356237309342
10
-11.126258461926263
20
-43.762253271383038
0
ENDSEC
0
SECTION
2
OBJECTS
0
DICTIONARY
5
C
100
AcDbDictionary
3
ACAD_GROUP
350
D
3
ACAD_MLINESTYLE
350
17
0
DICTIONARY
5
D
100
AcDbDictionary
0
DICTIONARY
5
1A
330
C
100
AcDbDictionary
0
DICTIONARY
5
17
100
AcDbDictionary
0
ENDSEC
0
EOF
